<svg xmlns="http://www.w3.org/2000/svg" width="256" height="256" viewBox="0 0 256 256" version="1.1"><path d="M 85.791 25.988 C 82.605 26.949, 77 30.769, 77 31.980 C 77 33.278, 126.868 90.500, 128 90.500 C 129.162 90.500, 179 33.260, 179 31.926 C 179 29.818, 171.015 25.857, 165.647 25.303 C 156.526 24.362, 151.658 27.426, 139.164 41.969 C 133.480 48.586, 128.470 54, 128.032 54 C 127.594 54, 122.647 48.713, 117.039 42.250 C 103.244 26.355, 96.396 22.792, 85.791 25.988 M 104 127.087 C 74.862 160.672, 76.441 158.620, 78.148 160.684 C 80.421 163.430, 87.234 165.955, 92.434 165.978 C 100.672 166.015, 104.637 163.299, 116.564 149.449 C 122.460 142.602, 127.607 137, 128.002 137 C 128.397 137, 133.603 142.631, 139.571 149.513 C 151.480 163.246, 155.452 166, 163.348 166 C 169.789 166, 179 161.866, 179 158.975 C 179 158.138, 129.249 100.620, 128.206 100.250 C 127.818 100.113, 116.925 112.189, 104 127.087 M 6.667 196.667 C 6.300 197.033, 6 204.219, 6 212.634 L 6 227.936 8.250 227.124 C 9.488 226.678, 11.400 224.910, 12.500 223.195 C 14.430 220.186, 14.751 220.076, 21.703 220.039 C 33.254 219.977, 36 217.643, 36 207.887 C 36 202.656, 34.780 199.350, 32.087 197.282 C 30.395 195.983, 7.895 195.439, 6.667 196.667 M 40.200 197.200 C 38.935 198.465, 38.409 226.075, 39.627 227.293 C 40.558 228.225, 45.662 225.324, 46.379 223.455 C 46.720 222.565, 47 220.973, 47 219.918 C 47 218.351, 47.723 218, 50.952 218 C 54.495 218, 55.216 218.454, 57.920 222.384 C 60.910 226.730, 64.380 228.559, 67.421 227.392 C 69.450 226.613, 69.457 226.647, 66.438 222.086 L 63.876 218.215 66.438 215.653 C 68.626 213.464, 69 212.203, 69 207 C 69 201.866, 68.614 200.523, 66.545 198.455 C 64.228 196.137, 63.458 196, 52.745 196 C 45.255 196, 40.992 196.408, 40.200 197.200 M 75.306 198.413 C 72.546 200.787, 72.500 201.008, 72.500 211.886 C 72.500 222.061, 72.682 223.126, 74.778 225.222 C 76.857 227.302, 77.964 227.500, 87.500 227.500 C 97.036 227.500, 98.143 227.302, 100.222 225.222 C 102.318 223.126, 102.500 222.061, 102.500 211.886 C 102.500 201.008, 102.454 200.787, 99.694 198.413 C 97.159 196.233, 95.983 196, 87.500 196 C 79.017 196, 77.841 196.233, 75.306 198.413 M 107.441 197.433 C 105.563 198.820, 105.614 198.990, 109.021 202.683 C 110.958 204.782, 113.602 207.714, 114.897 209.198 L 117.252 211.897 111.630 218.198 C 108.539 221.664, 106.007 224.849, 106.004 225.275 C 105.996 226.764, 110.958 227.967, 113.353 227.056 C 114.647 226.564, 117.275 224.329, 119.192 222.089 L 122.678 218.016 125.936 222.069 C 129.776 226.848, 132.974 228.341, 136.500 227 C 137.875 226.477, 138.994 225.701, 138.986 225.275 C 138.979 224.849, 136.524 221.620, 133.532 218.101 L 128.092 211.702 133.761 205.245 C 139.149 199.109, 139.336 198.719, 137.524 197.394 C 134.337 195.063, 131.944 195.793, 127.195 200.542 L 122.653 205.083 118.042 200.542 C 113.214 195.786, 110.679 195.043, 107.441 197.433 M 143.667 196.667 C 143.300 197.033, 143 204.191, 143 212.573 C 143 227.381, 143.057 227.798, 145.024 227.283 C 149.388 226.142, 150.997 222.350, 151.035 213.115 L 151.071 204.500 155.483 214.500 C 157.909 220, 160.480 224.500, 161.195 224.500 C 162.563 224.500, 164.179 221.700, 168.987 211 L 171.908 204.500 171.986 213.500 C 172.033 218.923, 172.548 223.131, 173.282 224.087 C 174.439 225.594, 178.222 228, 179.434 228 C 179.745 228, 180 221.073, 180 212.607 C 180 195.666, 180.130 196, 173.529 196 C 169.096 196, 166.233 198.535, 163.582 204.807 L 161.377 210.022 159.087 204.496 C 157.827 201.458, 155.842 198.303, 154.676 197.486 C 152.543 195.992, 144.909 195.424, 143.667 196.667 M 186.306 198.415 C 183.546 200.791, 183.500 201.013, 183.500 211.889 C 183.500 222.063, 183.682 223.128, 185.778 225.223 C 187.860 227.305, 188.961 227.500, 198.616 227.500 C 212.726 227.500, 213 227.194, 213 211.462 C 213 200.427, 212.934 200.093, 210.365 198.073 C 208.128 196.313, 206.325 196, 198.421 196 C 190.019 196, 188.838 196.235, 186.306 198.415 M 218.499 197.377 C 216.719 198.679, 216.934 199.117, 222.409 205.353 L 228.202 211.952 222.606 218.226 C 219.527 221.677, 217.007 224.849, 217.004 225.275 C 216.996 226.764, 221.958 227.967, 224.353 227.056 C 225.647 226.564, 228.275 224.329, 230.192 222.089 L 233.678 218.016 236.936 222.069 C 240.776 226.848, 243.974 228.341, 247.500 227 C 248.875 226.477, 249.994 225.701, 249.986 225.275 C 249.979 224.849, 247.524 221.620, 244.532 218.101 L 239.092 211.702 244.761 205.245 C 250.149 199.109, 250.336 198.719, 248.524 197.394 C 245.393 195.104, 243.167 195.764, 238.136 200.470 L 233.357 204.940 228.970 200.470 C 224.408 195.821, 221.715 195.026, 218.499 197.377 M 14 208.500 L 14 212.091 20.750 211.796 L 27.500 211.500 27.500 208.500 L 27.500 205.500 20.750 205.204 L 14 204.909 14 208.500 M 47 207.500 C 47 209.929, 47.200 210, 54 210 C 60.800 210, 61 209.929, 61 207.500 C 61 205.071, 60.800 205, 54 205 C 47.200 205, 47 205.071, 47 207.500 M 81 212 L 81 219 87.500 219 L 94 219 94 212 L 94 205 87.500 205 L 81 205 81 212 M 192 212 L 192 219 198.500 219 L 205 219 205 212 L 205 205 198.500 205 L 192 205 192 212" stroke="none" fill="#040404" fill-rule="evenodd"/><path d="M 56.864 45.802 C 53.785 47.411, 51.500 49.285, 51.500 50.203 C 51.500 51.082, 59.600 61.140, 69.500 72.553 C 79.400 83.966, 87.859 93.909, 88.298 94.648 C 88.849 95.577, 83.157 102.828, 69.878 118.115 C 48.576 142.637, 49.040 141.601, 57.417 145.912 C 63.534 149.060, 71.810 149.195, 77.500 146.239 C 82.409 143.690, 86.213 139.735, 107.377 115.188 C 122.119 98.088, 123.882 95.670, 122.763 94.078 C 122.068 93.089, 112.671 82.161, 101.880 69.792 C 80.098 44.826, 77.775 43, 67.798 43 C 63.640 43, 60.869 43.710, 56.864 45.802 M 178.111 45.174 C 174.800 46.813, 168.909 52.863, 154.111 69.821 C 143.325 82.183, 133.930 93.105, 133.232 94.093 C 132.109 95.684, 133.864 98.088, 148.638 115.194 C 170.025 139.958, 173.638 143.714, 178.500 146.239 C 184.190 149.195, 192.466 149.060, 198.583 145.912 C 206.960 141.601, 207.424 142.637, 186.122 118.115 C 172.843 102.828, 167.151 95.577, 167.702 94.648 C 168.141 93.909, 176.600 83.966, 186.500 72.553 C 196.400 61.140, 204.500 51.082, 204.500 50.203 C 204.500 49.285, 202.215 47.411, 199.136 45.802 C 192.280 42.221, 184.545 41.989, 178.111 45.174" stroke="none" fill="#e47304" fill-rule="evenodd"/></svg>